<svg width="362" height="195" viewBox="0 0 362 195" fill="none" xmlns="http://www.w3.org/2000/svg">
<path fill-rule="evenodd" clip-rule="evenodd" d="M199.568 24.8889H182C159.295 24.8889 140.889 43.295 140.889 66C140.889 88.705 159.295 107.111 182 107.111H184.632C205.883 107.111 223.111 89.8832 223.111 68.6316V48.4324C223.111 42.7079 223.079 40.9656 222.855 39.6622C221.582 32.2353 215.765 26.4181 208.338 25.1446C207.034 24.9211 205.292 24.8889 199.568 24.8889ZM182 16C154.386 16 132 38.3858 132 66C132 93.6142 154.386 116 182 116H184.632C210.792 116 232 94.7924 232 68.6316V48.4324C232 43.0755 232 40.397 231.616 38.16C229.706 27.0197 220.98 18.2938 209.84 16.3836C207.603 16 204.925 16 199.568 16H182Z" fill="white"/>
<path fill-rule="evenodd" clip-rule="evenodd" d="M145 97.6304L178.61 63L185 69.3696L151.39 104L145 97.6304Z" fill="white"/>
<rect x="186" y="16" width="99" height="8" transform="rotate(90 186 16)" fill="white"/>
<rect x="133" y="62" width="49" height="8" fill="white"/>
<rect x="182" y="62" width="49" height="8" fill="white"/>
<path d="M324.358 160.288L312.262 144.736H319.606L328.534 156.832L336.958 144.736H343.798L332.206 160.288L346.102 178.432H338.686L328.03 163.888L317.518 178.432H310.534L324.358 160.288Z" fill="white"/>
<path d="M270.952 161.584C270.952 158.944 271.408 156.544 272.32 154.384C273.232 152.224 274.48 150.376 276.064 148.84C277.648 147.256 279.544 146.032 281.752 145.168C283.96 144.304 286.36 143.872 288.952 143.872C291.544 143.872 293.944 144.304 296.152 145.168C298.36 146.032 300.256 147.256 301.84 148.84C303.424 150.376 304.672 152.224 305.584 154.384C306.496 156.544 306.952 158.944 306.952 161.584C306.952 164.224 306.496 166.624 305.584 168.784C304.672 170.944 303.424 172.816 301.84 174.4C300.256 175.936 298.36 177.136 296.152 178C293.944 178.864 291.544 179.296 288.952 179.296C286.36 179.296 283.96 178.864 281.752 178C279.544 177.136 277.648 175.936 276.064 174.4C274.48 172.816 273.232 170.944 272.32 168.784C271.408 166.624 270.952 164.224 270.952 161.584ZM277 161.584C277 163.36 277.264 165.016 277.792 166.552C278.368 168.04 279.184 169.36 280.24 170.512C281.296 171.616 282.544 172.504 283.984 173.176C285.472 173.8 287.128 174.112 288.952 174.112C290.776 174.112 292.408 173.8 293.848 173.176C295.336 172.504 296.608 171.616 297.664 170.512C298.72 169.36 299.512 168.04 300.04 166.552C300.616 165.016 300.904 163.36 300.904 161.584C300.904 159.808 300.616 158.176 300.04 156.688C299.512 155.152 298.72 153.832 297.664 152.728C296.608 151.576 295.336 150.688 293.848 150.064C292.408 149.392 290.776 149.056 288.952 149.056C287.128 149.056 285.472 149.392 283.984 150.064C282.544 150.688 281.296 151.576 280.24 152.728C279.184 153.832 278.368 155.152 277.792 156.688C277.264 158.176 277 159.808 277 161.584Z" fill="white"/>
<path d="M228.552 127.456H244.104C246.216 127.456 248.28 127.672 250.296 128.104C252.312 128.536 254.112 129.256 255.696 130.264C257.28 131.224 258.552 132.496 259.512 134.08C260.52 135.664 261.024 137.632 261.024 139.984C261.024 142.96 260.208 145.432 258.576 147.4C256.992 149.32 254.832 150.688 252.096 151.504V151.648C253.728 151.792 255.24 152.224 256.632 152.944C258.072 153.616 259.296 154.504 260.304 155.608C261.36 156.712 262.176 158.008 262.752 159.496C263.328 160.936 263.616 162.496 263.616 164.176C263.616 167.008 263.016 169.336 261.816 171.16C260.664 172.984 259.128 174.448 257.208 175.552C255.336 176.608 253.2 177.352 250.8 177.784C248.448 178.216 246.096 178.432 243.744 178.432H228.552V127.456ZM234.6 149.056H242.952C244.392 149.056 245.784 148.96 247.128 148.768C248.52 148.576 249.768 148.192 250.872 147.616C251.976 146.992 252.864 146.152 253.536 145.096C254.208 143.992 254.544 142.552 254.544 140.776C254.544 139.192 254.232 137.92 253.608 136.96C252.984 135.952 252.144 135.16 251.088 134.584C250.08 134.008 248.904 133.624 247.56 133.432C246.264 133.192 244.944 133.072 243.6 133.072H234.6V149.056ZM234.6 172.816H244.824C246.312 172.816 247.776 172.672 249.216 172.384C250.704 172.048 252.024 171.544 253.176 170.872C254.376 170.152 255.336 169.24 256.056 168.136C256.776 166.984 257.136 165.592 257.136 163.96C257.136 162.184 256.776 160.696 256.056 159.496C255.384 158.296 254.472 157.336 253.32 156.616C252.216 155.896 250.92 155.392 249.432 155.104C247.992 154.816 246.504 154.672 244.968 154.672H234.6V172.816Z" fill="white"/>
<path d="M210.752 124H216.368V178.432H210.752V124Z" fill="white"/>
<path d="M200.336 172.312C198.32 174.904 196.112 176.728 193.712 177.784C191.312 178.792 188.528 179.296 185.36 179.296C182.72 179.296 180.344 178.84 178.232 177.928C176.12 176.968 174.32 175.696 172.832 174.112C171.392 172.528 170.264 170.656 169.448 168.496C168.68 166.336 168.296 164.032 168.296 161.584C168.296 158.992 168.728 156.616 169.592 154.456C170.456 152.248 171.656 150.376 173.192 148.84C174.728 147.256 176.552 146.032 178.664 145.168C180.776 144.304 183.08 143.872 185.576 143.872C187.928 143.872 190.088 144.28 192.056 145.096C194.024 145.864 195.704 147.016 197.096 148.552C198.536 150.04 199.64 151.888 200.408 154.096C201.176 156.256 201.56 158.728 201.56 161.512V163.312H174.344C174.44 164.752 174.776 166.144 175.352 167.488C175.976 168.784 176.768 169.936 177.728 170.944C178.688 171.904 179.816 172.672 181.112 173.248C182.408 173.824 183.824 174.112 185.36 174.112C187.808 174.112 189.872 173.68 191.552 172.816C193.232 171.952 194.744 170.68 196.088 169L200.336 172.312ZM195.512 158.56C195.416 155.68 194.48 153.376 192.704 151.648C190.928 149.92 188.48 149.056 185.36 149.056C182.24 149.056 179.72 149.92 177.8 151.648C175.88 153.376 174.728 155.68 174.344 158.56H195.512Z" fill="white"/>
<path d="M160.328 172.312C158.312 174.904 156.104 176.728 153.704 177.784C151.304 178.792 148.52 179.296 145.352 179.296C142.712 179.296 140.336 178.84 138.224 177.928C136.112 176.968 134.312 175.696 132.824 174.112C131.384 172.528 130.256 170.656 129.44 168.496C128.672 166.336 128.288 164.032 128.288 161.584C128.288 158.992 128.72 156.616 129.584 154.456C130.448 152.248 131.648 150.376 133.184 148.84C134.72 147.256 136.544 146.032 138.656 145.168C140.768 144.304 143.072 143.872 145.568 143.872C147.92 143.872 150.08 144.28 152.048 145.096C154.016 145.864 155.696 147.016 157.088 148.552C158.528 150.04 159.632 151.888 160.4 154.096C161.168 156.256 161.552 158.728 161.552 161.512V163.312H134.336C134.432 164.752 134.768 166.144 135.344 167.488C135.968 168.784 136.76 169.936 137.72 170.944C138.68 171.904 139.808 172.672 141.104 173.248C142.4 173.824 143.816 174.112 145.352 174.112C147.8 174.112 149.864 173.68 151.544 172.816C153.224 171.952 154.736 170.68 156.08 169L160.328 172.312ZM155.504 158.56C155.408 155.68 154.472 153.376 152.696 151.648C150.92 149.92 148.472 149.056 145.352 149.056C142.232 149.056 139.712 149.92 137.792 151.648C135.872 153.376 134.72 155.68 134.336 158.56H155.504Z" fill="white"/>
<path d="M90.2241 124H95.8401V149.416H95.9841C96.3681 148.744 96.8961 148.096 97.5681 147.472C98.2401 146.8 99.0321 146.2 99.9441 145.672C100.904 145.144 101.96 144.712 103.112 144.376C104.264 144.04 105.488 143.872 106.784 143.872C108.992 143.872 110.888 144.208 112.472 144.88C114.104 145.552 115.448 146.488 116.504 147.688C117.56 148.888 118.328 150.352 118.808 152.08C119.336 153.76 119.6 155.608 119.6 157.624V178.432H113.984V158.2C113.984 155.368 113.36 153.136 112.112 151.504C110.864 149.872 108.92 149.056 106.28 149.056C104.456 149.056 102.872 149.368 101.528 149.992C100.232 150.616 99.1521 151.504 98.2881 152.656C97.4721 153.808 96.8481 155.176 96.4161 156.76C96.0321 158.344 95.8401 160.096 95.8401 162.016V178.432H90.2241V124Z" fill="white"/>
<path d="M16 127.456H22.696L34.288 169.792H34.432L46.96 127.456H53.728L66.184 169.792H66.328L78.136 127.456H84.472L69.496 178.432H62.944L50.344 135.232H50.2L37.528 178.432H30.904L16 127.456Z" fill="white"/>
</svg>
