<svg width="475" height="132" viewBox="0 0 475 132" fill="none" xmlns="http://www.w3.org/2000/svg">
<g clip-path="url(#clip0_27_312)">
<rect width="475" height="132" fill="#1E1E1E"/>
<path fill-rule="evenodd" clip-rule="evenodd" d="M83.5676 24.8889H66C43.295 24.8889 24.8889 43.295 24.8889 66C24.8889 88.705 43.295 107.111 66 107.111H68.6316C89.8832 107.111 107.111 89.8832 107.111 68.6316V48.4324C107.111 42.7079 107.079 40.9656 106.855 39.6622C105.582 32.2353 99.7647 26.4181 92.3378 25.1446C91.0344 24.9211 89.2921 24.8889 83.5676 24.8889ZM66 16C38.3858 16 16 38.3858 16 66C16 93.6142 38.3858 116 66 116H68.6316C94.7924 116 116 94.7924 116 68.6316V48.4324C116 43.0755 116 40.397 115.616 38.16C113.706 27.0197 104.98 18.2938 93.84 16.3836C91.603 16 88.9245 16 83.5676 16H66Z" fill="white"/>
<path fill-rule="evenodd" clip-rule="evenodd" d="M83.5676 24.8889H66C43.295 24.8889 24.8889 43.295 24.8889 66C24.8889 88.705 43.295 107.111 66 107.111H68.6316C89.8832 107.111 107.111 89.8832 107.111 68.6316V48.4324C107.111 42.7079 107.079 40.9656 106.855 39.6622C105.582 32.2353 99.7647 26.4181 92.3378 25.1446C91.0344 24.9211 89.2921 24.8889 83.5676 24.8889ZM66 16C38.3858 16 16 38.3858 16 66C16 93.6142 38.3858 116 66 116H68.6316C94.7924 116 116 94.7924 116 68.6316V48.4324C116 43.0755 116 40.397 115.616 38.16C113.706 27.0197 104.98 18.2938 93.84 16.3836C91.603 16 88.9245 16 83.5676 16H66Z" fill="white"/>
<path fill-rule="evenodd" clip-rule="evenodd" d="M29 97.6304L62.6102 63L69 69.3696L35.3898 104L29 97.6304Z" fill="white"/>
<rect x="70" y="16" width="99" height="8" transform="rotate(90 70 16)" fill="white"/>
<rect x="17" y="62" width="49" height="8" fill="white"/>
<rect x="66" y="62" width="49" height="8" fill="white"/>
<path d="M436.79 70.856L424.694 55.304H432.038L440.966 67.4L449.39 55.304H456.23L444.638 70.856L458.534 89H451.118L440.462 74.456L429.95 89H422.966L436.79 70.856Z" fill="white"/>
<path d="M383.384 72.1519C383.384 69.5119 383.84 67.1119 384.752 64.9519C385.664 62.7919 386.912 60.9439 388.496 59.4079C390.08 57.8239 391.976 56.5999 394.184 55.7359C396.392 54.8719 398.792 54.4399 401.384 54.4399C403.976 54.4399 406.376 54.8719 408.584 55.7359C410.792 56.5999 412.688 57.8239 414.272 59.4079C415.856 60.9439 417.104 62.7919 418.016 64.9519C418.928 67.1119 419.384 69.5119 419.384 72.1519C419.384 74.7919 418.928 77.1919 418.016 79.3519C417.104 81.5119 415.856 83.3839 414.272 84.9679C412.688 86.5039 410.792 87.7039 408.584 88.5679C406.376 89.4319 403.976 89.8639 401.384 89.8639C398.792 89.8639 396.392 89.4319 394.184 88.5679C391.976 87.7039 390.08 86.5039 388.496 84.9679C386.912 83.3839 385.664 81.5119 384.752 79.3519C383.84 77.1919 383.384 74.7919 383.384 72.1519ZM389.432 72.1519C389.432 73.9279 389.696 75.5839 390.224 77.1199C390.8 78.6079 391.616 79.9279 392.672 81.0799C393.728 82.1839 394.976 83.0719 396.416 83.7439C397.904 84.3679 399.56 84.6799 401.384 84.6799C403.208 84.6799 404.84 84.3679 406.28 83.7439C407.768 83.0719 409.04 82.1839 410.096 81.0799C411.152 79.9279 411.944 78.6079 412.472 77.1199C413.048 75.5839 413.336 73.9279 413.336 72.1519C413.336 70.3759 413.048 68.7439 412.472 67.2559C411.944 65.7199 411.152 64.3999 410.096 63.2959C409.04 62.1439 407.768 61.2559 406.28 60.6319C404.84 59.9599 403.208 59.6239 401.384 59.6239C399.56 59.6239 397.904 59.9599 396.416 60.6319C394.976 61.2559 393.728 62.1439 392.672 63.2959C391.616 64.3999 390.8 65.7199 390.224 67.2559C389.696 68.7439 389.432 70.3759 389.432 72.1519Z" fill="white"/>
<path d="M340.984 38.0239H356.536C358.648 38.0239 360.712 38.2399 362.728 38.6719C364.744 39.1039 366.544 39.8239 368.128 40.8319C369.712 41.7919 370.984 43.0639 371.944 44.6479C372.952 46.2319 373.456 48.1999 373.456 50.5519C373.456 53.5279 372.64 55.9999 371.008 57.9679C369.424 59.8879 367.264 61.2559 364.528 62.0719V62.2159C366.16 62.3599 367.672 62.7919 369.064 63.5119C370.504 64.1839 371.728 65.0719 372.736 66.1759C373.792 67.2799 374.608 68.5759 375.184 70.0639C375.76 71.5039 376.048 73.0639 376.048 74.7439C376.048 77.5759 375.448 79.9039 374.248 81.7279C373.096 83.5519 371.56 85.0159 369.64 86.1199C367.768 87.1759 365.632 87.9199 363.232 88.3519C360.88 88.7839 358.528 88.9999 356.176 88.9999H340.984V38.0239ZM347.032 59.6239H355.384C356.824 59.6239 358.216 59.5279 359.56 59.3359C360.952 59.1439 362.2 58.7599 363.304 58.1839C364.408 57.5599 365.296 56.7199 365.968 55.6639C366.64 54.5599 366.976 53.1199 366.976 51.3439C366.976 49.7599 366.664 48.4879 366.04 47.5279C365.416 46.5199 364.576 45.7279 363.52 45.1519C362.512 44.5759 361.336 44.1919 359.992 43.9999C358.696 43.7599 357.376 43.6399 356.032 43.6399H347.032V59.6239ZM347.032 83.3839H357.256C358.744 83.3839 360.208 83.2399 361.648 82.9519C363.136 82.6159 364.456 82.1119 365.608 81.4399C366.808 80.7199 367.768 79.8079 368.488 78.7039C369.208 77.5519 369.568 76.1599 369.568 74.5279C369.568 72.7519 369.208 71.2639 368.488 70.0639C367.816 68.8639 366.904 67.9039 365.752 67.1839C364.648 66.4639 363.352 65.9599 361.864 65.6719C360.424 65.3839 358.936 65.2399 357.4 65.2399H347.032V83.3839Z" fill="white"/>
<path d="M323.184 34.5681H328.8V89.0001H323.184V34.5681Z" fill="white"/>
<path d="M312.768 82.8799C310.752 85.4719 308.544 87.2959 306.144 88.3519C303.744 89.3599 300.96 89.8639 297.792 89.8639C295.152 89.8639 292.776 89.4079 290.664 88.4959C288.552 87.5359 286.752 86.2639 285.264 84.6799C283.824 83.0959 282.696 81.2239 281.88 79.0639C281.112 76.9039 280.728 74.5999 280.728 72.1519C280.728 69.5599 281.16 67.1839 282.024 65.0239C282.888 62.8159 284.088 60.9439 285.624 59.4079C287.16 57.8239 288.984 56.5999 291.096 55.7359C293.208 54.8719 295.512 54.4399 298.008 54.4399C300.36 54.4399 302.52 54.8479 304.488 55.6639C306.456 56.4319 308.136 57.5839 309.528 59.1199C310.968 60.6079 312.072 62.4559 312.84 64.6639C313.608 66.8239 313.992 69.2959 313.992 72.0799V73.8799H286.776C286.872 75.3199 287.208 76.7119 287.784 78.0559C288.408 79.3519 289.2 80.5039 290.16 81.5119C291.12 82.4719 292.248 83.2399 293.544 83.8159C294.84 84.3919 296.256 84.6799 297.792 84.6799C300.24 84.6799 302.304 84.2479 303.984 83.3839C305.664 82.5199 307.176 81.2479 308.52 79.5679L312.768 82.8799ZM307.944 69.1279C307.848 66.2479 306.912 63.9439 305.136 62.2159C303.36 60.4879 300.912 59.6239 297.792 59.6239C294.672 59.6239 292.152 60.4879 290.232 62.2159C288.312 63.9439 287.16 66.2479 286.776 69.1279H307.944Z" fill="white"/>
<path d="M272.76 82.8799C270.744 85.4719 268.536 87.2959 266.136 88.3519C263.736 89.3599 260.952 89.8639 257.784 89.8639C255.144 89.8639 252.768 89.4079 250.656 88.4959C248.544 87.5359 246.744 86.2639 245.256 84.6799C243.816 83.0959 242.688 81.2239 241.872 79.0639C241.104 76.9039 240.72 74.5999 240.72 72.1519C240.72 69.5599 241.152 67.1839 242.016 65.0239C242.88 62.8159 244.08 60.9439 245.616 59.4079C247.152 57.8239 248.976 56.5999 251.088 55.7359C253.2 54.8719 255.504 54.4399 258 54.4399C260.352 54.4399 262.512 54.8479 264.48 55.6639C266.448 56.4319 268.128 57.5839 269.52 59.1199C270.96 60.6079 272.064 62.4559 272.832 64.6639C273.6 66.8239 273.984 69.2959 273.984 72.0799V73.8799H246.768C246.864 75.3199 247.2 76.7119 247.776 78.0559C248.4 79.3519 249.192 80.5039 250.152 81.5119C251.112 82.4719 252.24 83.2399 253.536 83.8159C254.832 84.3919 256.248 84.6799 257.784 84.6799C260.232 84.6799 262.296 84.2479 263.976 83.3839C265.656 82.5199 267.168 81.2479 268.512 79.5679L272.76 82.8799ZM267.936 69.1279C267.84 66.2479 266.904 63.9439 265.128 62.2159C263.352 60.4879 260.904 59.6239 257.784 59.6239C254.664 59.6239 252.144 60.4879 250.224 62.2159C248.304 63.9439 247.152 66.2479 246.768 69.1279H267.936Z" fill="white"/>
<path d="M202.656 34.5681H208.272V59.9841H208.416C208.8 59.3121 209.328 58.6641 210 58.0401C210.672 57.3681 211.464 56.7681 212.376 56.2401C213.336 55.7121 214.392 55.2801 215.544 54.9441C216.696 54.6081 217.92 54.4401 219.216 54.4401C221.424 54.4401 223.32 54.7761 224.904 55.4481C226.536 56.1201 227.88 57.0561 228.936 58.2561C229.992 59.4561 230.76 60.9201 231.24 62.6481C231.768 64.3281 232.032 66.1761 232.032 68.1921V89.0001H226.416V68.7681C226.416 65.9361 225.792 63.7041 224.544 62.0721C223.296 60.4401 221.352 59.6241 218.712 59.6241C216.888 59.6241 215.304 59.9361 213.96 60.5601C212.664 61.1841 211.584 62.0721 210.72 63.2241C209.904 64.3761 209.28 65.7441 208.848 67.3281C208.464 68.9121 208.272 70.6641 208.272 72.5841V89.0001H202.656V34.5681Z" fill="white"/>
<path d="M128.432 38.0239H135.128L146.72 80.3599H146.864L159.392 38.0239H166.16L178.616 80.3599H178.76L190.568 38.0239H196.904L181.928 88.9999H175.376L162.776 45.7999H162.632L149.96 88.9999H143.336L128.432 38.0239Z" fill="white"/>
</g>
<defs>
<clipPath id="clip0_27_312">
<rect width="475" height="132" fill="white"/>
</clipPath>
</defs>
</svg>
