<svg width="132" height="132" viewBox="0 0 132 132" fill="none" xmlns="http://www.w3.org/2000/svg">
<path fill-rule="evenodd" clip-rule="evenodd" d="M83.5676 24.8889H66C43.295 24.8889 24.8889 43.295 24.8889 66C24.8889 88.705 43.295 107.111 66 107.111H68.6316C89.8832 107.111 107.111 89.8832 107.111 68.6316V48.4324C107.111 42.7079 107.079 40.9656 106.855 39.6622C105.582 32.2353 99.7647 26.4181 92.3378 25.1446C91.0344 24.9211 89.2921 24.8889 83.5676 24.8889ZM66 16C38.3858 16 16 38.3858 16 66C16 93.6142 38.3858 116 66 116H68.6316C94.7924 116 116 94.7924 116 68.6316V48.4324C116 43.0755 116 40.397 115.616 38.16C113.706 27.0197 104.98 18.2938 93.84 16.3836C91.603 16 88.9245 16 83.5676 16H66Z" fill="white"/>
<path fill-rule="evenodd" clip-rule="evenodd" d="M83.5676 24.8889H66C43.295 24.8889 24.8889 43.295 24.8889 66C24.8889 88.705 43.295 107.111 66 107.111H68.6316C89.8832 107.111 107.111 89.8832 107.111 68.6316V48.4324C107.111 42.7079 107.079 40.9656 106.855 39.6622C105.582 32.2353 99.7647 26.4181 92.3378 25.1446C91.0344 24.9211 89.2921 24.8889 83.5676 24.8889ZM66 16C38.3858 16 16 38.3858 16 66C16 93.6142 38.3858 116 66 116H68.6316C94.7924 116 116 94.7924 116 68.6316V48.4324C116 43.0755 116 40.397 115.616 38.16C113.706 27.0197 104.98 18.2938 93.84 16.3836C91.603 16 88.9245 16 83.5676 16H66Z" fill="white"/>
<path fill-rule="evenodd" clip-rule="evenodd" d="M29 97.6304L62.6102 63L69 69.3696L35.3898 104L29 97.6304Z" fill="white"/>
<rect x="70" y="16" width="99" height="8" transform="rotate(90 70 16)" fill="white"/>
<rect x="17" y="62" width="49" height="8" fill="white"/>
<rect x="66" y="62" width="49" height="8" fill="white"/>
</svg>
