<svg width="120" height="24" viewBox="0 0 120 24" fill="none" xmlns="http://www.w3.org/2000/svg">
<path d="M3 3H9V9H3V3Z" fill="#8C62F6"/>
<path d="M15 9H21V6L18 3H15V9Z" fill="#8C62F6"/>
<path d="M9 15H3V18L6 21H9V15Z" fill="#8C62F6"/>
<path d="M15 15H21V21H15V15Z" fill="#8C62F6"/>
<path d="M9 9H15V15H9V9Z" fill="#8C62F6"/>
<path d="M3 9H9V15H3V9Z" fill="#8C62F6"/>
<path d="M111.728 20C111 20 110.338 19.8635 109.744 19.5903C109.15 19.3122 108.678 18.9125 108.329 18.3911C107.979 17.8647 107.805 17.2291 107.805 16.4842C107.805 15.8287 107.934 15.2973 108.194 14.8901C108.454 14.478 108.801 14.1552 109.235 13.9218C109.669 13.6884 110.148 13.5146 110.673 13.4004C111.202 13.2812 111.733 13.1869 112.268 13.1173C112.966 13.0279 113.533 12.9609 113.967 12.9162C114.407 12.8666 114.726 12.7846 114.926 12.6704C115.13 12.5562 115.233 12.3576 115.233 12.0745V12.0149C115.233 11.28 115.031 10.7089 114.626 10.3017C114.227 9.89449 113.62 9.69089 112.807 9.69089C111.963 9.69089 111.302 9.87463 110.822 10.2421C110.343 10.6096 110.006 11.0019 109.811 11.419L108.134 10.8231C108.434 10.1279 108.833 9.58661 109.332 9.19927C109.836 8.80697 110.386 8.53384 110.98 8.3799C111.579 8.221 112.168 8.14154 112.747 8.14154C113.116 8.14154 113.541 8.18623 114.02 8.27562C114.504 8.36004 114.971 8.53633 115.42 8.80448C115.874 9.07264 116.251 9.47736 116.551 10.0186C116.85 10.5599 117 11.2849 117 12.1937V19.7319H115.233V18.1825H115.143C115.023 18.4308 114.823 18.6965 114.544 18.9795C114.264 19.2626 113.892 19.5034 113.428 19.7021C112.964 19.9007 112.397 20 111.728 20ZM111.998 18.4209C112.697 18.4209 113.286 18.2843 113.765 18.0112C114.249 17.7381 114.614 17.3855 114.858 16.9535C115.108 16.5214 115.233 16.0671 115.233 15.5903V13.9814C115.158 14.0708 114.993 14.1527 114.739 14.2272C114.489 14.2967 114.199 14.3588 113.87 14.4134C113.546 14.4631 113.229 14.5078 112.919 14.5475C112.615 14.5823 112.367 14.6121 112.178 14.6369C111.718 14.6965 111.289 14.7933 110.89 14.9274C110.495 15.0565 110.176 15.2527 109.931 15.5158C109.692 15.7741 109.572 16.1266 109.572 16.5736C109.572 17.1844 109.799 17.6462 110.253 17.959C110.713 18.2669 111.294 18.4209 111.998 18.4209Z" fill="#8C62F6"/>
<path d="M103.34 19.7318V8.2905H105.107V19.7318H103.34ZM104.238 6.38361C103.894 6.38361 103.597 6.26691 103.347 6.03352C103.103 5.80012 102.98 5.51955 102.98 5.19181C102.98 4.86406 103.103 4.58349 103.347 4.35009C103.597 4.1167 103.894 4 104.238 4C104.583 4 104.877 4.1167 105.122 4.35009C105.372 4.58349 105.496 4.86406 105.496 5.19181C105.496 5.51955 105.372 5.80012 105.122 6.03352C104.877 6.26691 104.583 6.38361 104.238 6.38361Z" fill="#8C62F6"/>
<path d="M92.7724 12.8492V19.7319H91.0052V8.29052H92.7125V10.0782H92.8623C93.1319 9.49722 93.5412 9.03043 94.0903 8.67785C94.6394 8.32031 95.3483 8.14154 96.2169 8.14154C96.9957 8.14154 97.6771 8.30045 98.2612 8.61826C98.8452 8.93111 99.2995 9.40784 99.624 10.0484C99.9485 10.6841 100.111 11.4885 100.111 12.4618V19.7319H98.3435V12.581C98.3435 11.6822 98.1089 10.982 97.6397 10.4805C97.1704 9.97394 96.5264 9.72068 95.7077 9.72068C95.1436 9.72068 94.6394 9.84235 94.1952 10.0857C93.7559 10.329 93.4089 10.6841 93.1543 11.1509C92.8997 11.6176 92.7724 12.1838 92.7724 12.8492Z" fill="#8C62F6"/>
<path d="M83.096 19.9702C82.0576 19.9702 81.1466 19.7244 80.3629 19.2328C79.5841 18.7412 78.9751 18.0534 78.5358 17.1695C78.1015 16.2856 77.8843 15.2527 77.8843 14.0708C77.8843 12.879 78.1015 11.8386 78.5358 10.9497C78.9751 10.0608 79.5841 9.37059 80.3629 8.87897C81.1466 8.38735 82.0576 8.14154 83.096 8.14154C84.1343 8.14154 85.0429 8.38735 85.8216 8.87897C86.6054 9.37059 87.2144 10.0608 87.6487 10.9497C88.088 11.8386 88.3077 12.879 88.3077 14.0708C88.3077 15.2527 88.088 16.2856 87.6487 17.1695C87.2144 18.0534 86.6054 18.7412 85.8216 19.2328C85.0429 19.7244 84.1343 19.9702 83.096 19.9702ZM83.096 18.3911C83.8847 18.3911 84.5337 18.19 85.0429 17.7877C85.5521 17.3855 85.929 16.8566 86.1736 16.2011C86.4182 15.5456 86.5405 14.8355 86.5405 14.0708C86.5405 13.306 86.4182 12.5934 86.1736 11.933C85.929 11.2725 85.5521 10.7387 85.0429 10.3315C84.5337 9.92428 83.8847 9.72068 83.096 9.72068C82.3072 9.72068 81.6583 9.92428 81.1491 10.3315C80.6399 10.7387 80.263 11.2725 80.0184 11.933C79.7738 12.5934 79.6515 13.306 79.6515 14.0708C79.6515 14.8355 79.7738 15.5456 80.0184 16.2011C80.263 16.8566 80.6399 17.3855 81.1491 17.7877C81.6583 18.19 82.3072 18.3911 83.096 18.3911Z" fill="#8C62F6"/>
<path d="M60.0965 19.7319V8.29052H61.8037V10.0782H61.9535C62.1931 9.46743 62.58 8.99319 63.1142 8.65551C63.6483 8.31286 64.2898 8.14154 65.0386 8.14154C65.7974 8.14154 66.4289 8.31286 66.9331 8.65551C67.4422 8.99319 67.8391 9.46743 68.1237 10.0782H68.2435C68.538 9.48729 68.9798 9.01801 69.5688 8.6704C70.1579 8.31783 70.8643 8.14154 71.688 8.14154C72.7163 8.14154 73.5575 8.46184 74.2114 9.10243C74.8654 9.73806 75.1924 10.7288 75.1924 12.0745V19.7319H73.4252V12.0745C73.4252 11.2303 73.1931 10.627 72.7288 10.2644C72.2645 9.90194 71.7179 9.72068 71.0889 9.72068C70.2802 9.72068 69.6537 9.96401 69.2094 10.4507C68.7651 10.9324 68.543 11.5432 68.543 12.2831V19.7319H66.7459V11.8957C66.7459 11.2452 66.5337 10.7213 66.1094 10.324C65.685 9.9218 65.1384 9.72068 64.4695 9.72068C64.0102 9.72068 63.5809 9.84235 63.1815 10.0857C62.7872 10.329 62.4677 10.6667 62.2231 11.0987C61.9835 11.5258 61.8636 12.0199 61.8636 12.581V19.7319H60.0965Z" fill="#8C62F6"/>
<path d="M52.2509 19.7318V8.29047H53.9582V10.0186H54.078C54.2876 9.45248 54.667 8.99314 55.2162 8.64056C55.7653 8.28798 56.3843 8.11169 57.0732 8.11169C57.203 8.11169 57.3652 8.11418 57.5599 8.11914C57.7546 8.12411 57.9019 8.13156 58.0017 8.14149V9.9292C57.9418 9.9143 57.8045 9.89196 57.5899 9.86216C57.3802 9.8274 57.1581 9.81002 56.9234 9.81002C56.3643 9.81002 55.8651 9.92672 55.4258 10.1601C54.9915 10.3885 54.6471 10.7064 54.3925 11.1136C54.1429 11.5158 54.0181 11.9751 54.0181 12.4916V19.7318H52.2509Z" fill="#8C62F6"/>
<path d="M43.7538 20C43.025 20 42.3635 19.8635 41.7695 19.5903C41.1754 19.3122 40.7037 18.9125 40.3542 18.3911C40.0048 17.8647 39.8301 17.2291 39.8301 16.4842C39.8301 15.8287 39.9599 15.2973 40.2195 14.8901C40.479 14.478 40.826 14.1552 41.2603 13.9218C41.6946 13.6884 42.1738 13.5146 42.698 13.4004C43.2272 13.2812 43.7588 13.1869 44.293 13.1173C44.9918 13.0279 45.5584 12.9609 45.9927 12.9162C46.432 12.8666 46.7515 12.7846 46.9512 12.6704C47.1559 12.5562 47.2582 12.3576 47.2582 12.0745V12.0149C47.2582 11.28 47.056 10.7089 46.6517 10.3017C46.2523 9.89449 45.6458 9.69089 44.8321 9.69089C43.9884 9.69089 43.327 9.87463 42.8478 10.2421C42.3685 10.6096 42.0316 11.0019 41.8369 11.419L40.1596 10.8231C40.4591 10.1279 40.8584 9.58661 41.3576 9.19927C41.8618 8.80697 42.411 8.53384 43.005 8.3799C43.6041 8.221 44.1931 8.14154 44.7722 8.14154C45.1416 8.14154 45.5659 8.18623 46.0452 8.27562C46.5294 8.36004 46.9961 8.53633 47.4454 8.80448C47.8997 9.07264 48.2766 9.47736 48.5761 10.0186C48.8756 10.5599 49.0254 11.2849 49.0254 12.1937V19.7319H47.2582V18.1825H47.1684C47.0486 18.4308 46.8489 18.6965 46.5693 18.9795C46.2898 19.2626 45.9179 19.5034 45.4536 19.7021C44.9893 19.9007 44.4227 20 43.7538 20ZM44.0234 18.4209C44.7223 18.4209 45.3113 18.2843 45.7906 18.0112C46.2748 17.7381 46.6392 17.3855 46.8838 16.9535C47.1334 16.5214 47.2582 16.0671 47.2582 15.5903V13.9814C47.1833 14.0708 47.0186 14.1527 46.764 14.2272C46.5144 14.2967 46.2249 14.3588 45.8954 14.4134C45.5709 14.4631 45.2539 14.5078 44.9444 14.5475C44.6399 14.5823 44.3928 14.6121 44.2031 14.6369C43.7438 14.6965 43.3145 14.7933 42.9152 14.9274C42.5208 15.0565 42.2013 15.2527 41.9567 15.5158C41.7171 15.7741 41.5973 16.1266 41.5973 16.5736C41.5973 17.1844 41.8244 17.6462 42.2787 17.959C42.7379 18.2669 43.3195 18.4209 44.0234 18.4209Z" fill="#8C62F6"/>
<path d="M25 19.7319V4.47675H26.857V11.27H35.034V4.47675H36.891V19.7319H35.034V12.9088H26.857V19.7319H25Z" fill="#8C62F6"/>
</svg>
